<?xml version="1.0" encoding="UTF-8" standalone="no"?>
<svg
   xmlns:dc="http://purl.org/dc/elements/1.1/"
   xmlns:cc="http://creativecommons.org/ns#"
   xmlns:rdf="http://www.w3.org/1999/02/22-rdf-syntax-ns#"
   xmlns:svg="http://www.w3.org/2000/svg"
   xmlns="http://www.w3.org/2000/svg"
   xmlns:sodipodi="http://sodipodi.sourceforge.net/DTD/sodipodi-0.dtd"
   xmlns:inkscape="http://www.inkscape.org/namespaces/inkscape"
   width="1212.1864mm"
   height="206.33412mm"
   viewBox="0 0 1212.1864 206.33412"
   version="1.1"
   id="svg8"
   inkscape:version="1.0.2-2 (e86c870879, 2021-01-15)"
   sodipodi:docname="fullnamedraft2svg.svg">
  <defs
     id="defs2" />
  <sodipodi:namedview
     id="base"
     pagecolor="#ffffff"
     bordercolor="#666666"
     borderopacity="1.0"
     inkscape:pageopacity="0.0"
     inkscape:pageshadow="2"
     inkscape:zoom="0.1767767"
     inkscape:cx="4269.0361"
     inkscape:cy="213.42692"
     inkscape:document-units="mm"
     inkscape:current-layer="layer1-8"
     inkscape:document-rotation="0"
     showgrid="false"
     fit-margin-top="0"
     fit-margin-left="0"
     fit-margin-right="0"
     fit-margin-bottom="0"
     inkscape:window-width="1920"
     inkscape:window-height="1017"
     inkscape:window-x="-8"
     inkscape:window-y="-8"
     inkscape:window-maximized="1" />
  <metadata
     id="metadata5">
    <rdf:RDF>
      <cc:Work
         rdf:about="">
        <dc:format>image/svg+xml</dc:format>
        <dc:type
           rdf:resource="http://purl.org/dc/dcmitype/StillImage" />
        <dc:title></dc:title>
      </cc:Work>
    </rdf:RDF>
  </metadata>
  <g
     inkscape:label="Layer 1"
     inkscape:groupmode="layer"
     id="layer1"
     transform="translate(199.97621,45.058999)">
    <g
       id="layer1-8"
       transform="translate(-157.23811,-81.642861)">
      <g
         aria-label="TOMIFit"
         id="text104"
         style="font-style:normal;font-variant:normal;font-weight:normal;font-stretch:normal;font-size:256.3px;line-height:1.25;font-family:Montserrat;-inkscape-font-specification:Montserrat;fill:currentColor;fill-opacity:1;stroke-width:0.274607">
        <path
           style="font-style:normal;font-variant:normal;font-weight:bold;font-stretch:normal;font-size:medium;line-height:1.25;font-family:Montserrat;-inkscape-font-specification:'Montserrat Bold';font-variant-ligatures:normal;font-variant-position:normal;font-variant-caps:normal;font-variant-numeric:normal;font-variant-alternates:normal;font-variant-east-asian:normal;font-feature-settings:normal;font-variation-settings:normal;text-indent:0;text-align:start;text-decoration:none;text-decoration-line:none;text-decoration-style:solid;text-decoration-letter-spacing:normal;word-spacing:normal;text-transform:none;writing-mode:lr-tb;direction:ltr;text-orientation:mixed;dominant-baseline:auto;baseline-shift:baseline;text-anchor:start;white-space:normal;shape-padding:0;shape-margin:0;inline-size:0;clip-rule:nonzero;display:inline;overflow:visible;visibility:visible;isolation:auto;mix-blend-mode:normal;color-interpolation:sRGB;color-interpolation-filters:linearRGB;solid-solid-opacity:1;vector-effect:none;fill:currentColor;fill-opacity:1;fill-rule:nonzero;stroke-width:0.274607;stroke-linecap:butt;stroke-linejoin:miter;stroke-miterlimit:4;stroke-dasharray:none;stroke-dashoffset:0;stroke-opacity:1;color-rendering:auto;image-rendering:auto;shape-rendering:auto;text-rendering:auto;enable-background:accumulate;stop-stop-opacity:1;stroke:none;opacity:1"
           d="M 199.35408,230.95468 V 85.376288 h -57.4112 V 51.54469 h 156.34299 v 33.831598 h -57.4112 V 230.95468 Z"
           id="path938" />
        <path
           style="font-style:normal;font-variant:normal;font-weight:bold;font-stretch:normal;font-size:medium;line-height:1.25;font-family:Montserrat;-inkscape-font-specification:'Montserrat Bold';font-variant-ligatures:normal;font-variant-position:normal;font-variant-caps:normal;font-variant-numeric:normal;font-variant-alternates:normal;font-variant-east-asian:normal;font-feature-settings:normal;font-variation-settings:normal;text-indent:0;text-align:start;text-decoration:none;text-decoration-line:none;text-decoration-style:solid;text-decoration-letter-spacing:normal;word-spacing:normal;text-transform:none;writing-mode:lr-tb;direction:ltr;text-orientation:mixed;dominant-baseline:auto;baseline-shift:baseline;text-anchor:start;white-space:normal;shape-padding:0;shape-margin:0;inline-size:0;clip-rule:nonzero;display:inline;overflow:visible;visibility:visible;isolation:auto;mix-blend-mode:normal;color-interpolation:sRGB;color-interpolation-filters:linearRGB;solid-solid-opacity:1;vector-effect:none;fill:currentColor;fill-opacity:1;fill-rule:nonzero;stroke-width:0.274607;stroke-linecap:butt;stroke-linejoin:miter;stroke-miterlimit:4;stroke-dasharray:none;stroke-dashoffset:0;stroke-opacity:1;color-rendering:auto;image-rendering:auto;shape-rendering:auto;text-rendering:auto;enable-background:accumulate;stop-stop-opacity:1;stroke:none;opacity:1"
           d="m 405.16242,234.03028 c -14.18193,0 -27.33867,-2.3067 -39.4702,-6.9201 -11.96066,-4.6134 -22.38352,-11.10633 -31.26859,-19.4788 -8.7142,-8.37247 -15.54887,-18.1973 -20.504,-29.4745 -4.78427,-11.2772 -7.1764,-23.5796 -7.1764,-36.90719 0,-13.3276 2.39213,-25.63 7.1764,-36.9072 4.95513,-11.277201 11.87523,-21.102035 20.7603,-29.474501 8.88507,-8.372467 19.30793,-14.8654 31.26859,-19.478799 11.96067,-4.6134 24.94653,-6.9201 38.9576,-6.9201 14.18193,0 27.1678,2.3067 38.9576,6.9201 11.96067,4.613399 22.2981,11.106332 31.0123,19.478799 8.88507,8.372466 15.80517,18.1973 20.7603,29.474501 4.95513,11.10633 7.4327,23.40873 7.4327,36.9072 0,13.32759 -2.47757,25.71542 -7.4327,37.16349 -4.95513,11.2772 -11.87523,21.10203 -20.7603,29.4745 -8.7142,8.2016 -19.05163,14.6091 -31.0123,19.2225 -11.7898,4.6134 -24.69023,6.9201 -38.7013,6.9201 z m -0.2563,-35.3694 c 8.03073,0 15.378,-1.36693 22.0418,-4.1008 6.83467,-2.73387 12.815,-6.6638 17.941,-11.7898 5.126,-5.126 9.05593,-11.19177 11.7898,-18.1973 2.90473,-7.00553 4.3571,-14.77996 4.3571,-23.32329 0,-8.54333 -1.45237,-16.31777 -4.3571,-23.3233 -2.73387,-7.00553 -6.6638,-13.0713 -11.7898,-18.197302 -4.95513,-5.126 -10.85003,-9.055933 -17.6847,-11.7898 -6.83467,-2.733867 -14.26737,-4.1008 -22.2981,-4.1008 -8.03073,0 -15.46343,1.366933 -22.2981,4.1008 -6.6638,2.733867 -12.5587,6.6638 -17.6847,11.7898 -5.12599,5.126002 -9.14136,11.191772 -12.04609,18.197302 -2.73387,7.00553 -4.1008,14.77997 -4.1008,23.3233 0,8.37247 1.36693,16.1469 4.1008,23.32329 2.90473,7.00553 6.83466,13.0713 11.78979,18.1973 5.126,5.126 11.10633,9.05593 17.941,11.7898 6.83467,2.73387 14.26737,4.1008 22.2981,4.1008 z"
           id="path940" />
        <path
           style="font-style:normal;font-variant:normal;font-weight:bold;font-stretch:normal;font-size:medium;line-height:1.25;font-family:Montserrat;-inkscape-font-specification:'Montserrat Bold';font-variant-ligatures:normal;font-variant-position:normal;font-variant-caps:normal;font-variant-numeric:normal;font-variant-alternates:normal;font-variant-east-asian:normal;font-feature-settings:normal;font-variation-settings:normal;text-indent:0;text-align:start;text-decoration:none;text-decoration-line:none;text-decoration-style:solid;text-decoration-letter-spacing:normal;word-spacing:normal;text-transform:none;writing-mode:lr-tb;direction:ltr;text-orientation:mixed;dominant-baseline:auto;baseline-shift:baseline;text-anchor:start;white-space:normal;shape-padding:0;shape-margin:0;inline-size:0;clip-rule:nonzero;display:inline;overflow:visible;visibility:visible;isolation:auto;mix-blend-mode:normal;color-interpolation:sRGB;color-interpolation-filters:linearRGB;solid-solid-opacity:1;vector-effect:none;fill:currentColor;fill-opacity:1;fill-rule:nonzero;stroke-width:0.274607;stroke-linecap:butt;stroke-linejoin:miter;stroke-miterlimit:4;stroke-dasharray:none;stroke-dashoffset:0;stroke-opacity:1;color-rendering:auto;image-rendering:auto;shape-rendering:auto;text-rendering:auto;enable-background:accumulate;stop-stop-opacity:1;stroke:none;opacity:1"
           d="M 534.33758,230.95468 V 51.54469 h 34.3442 l 76.3774,126.61219 h -18.1973 L 701.95777,51.54469 h 34.0879 l 0.5126,179.40999 h -38.9576 l -0.2563,-119.69209 h 7.1764 l -59.97419,100.72589 h -18.7099 l -61.2557,-100.72589 h 8.7142 v 119.69209 z"
           id="path942" />
        <path
           style="font-style:normal;font-variant:normal;font-weight:bold;font-stretch:normal;font-size:medium;line-height:1.25;font-family:Montserrat;-inkscape-font-specification:'Montserrat Bold';font-variant-ligatures:normal;font-variant-position:normal;font-variant-caps:normal;font-variant-numeric:normal;font-variant-alternates:normal;font-variant-east-asian:normal;font-feature-settings:normal;font-variation-settings:normal;text-indent:0;text-align:start;text-decoration:none;text-decoration-line:none;text-decoration-style:solid;text-decoration-letter-spacing:normal;word-spacing:normal;text-transform:none;writing-mode:lr-tb;direction:ltr;text-orientation:mixed;dominant-baseline:auto;baseline-shift:baseline;text-anchor:start;white-space:normal;shape-padding:0;shape-margin:0;inline-size:0;clip-rule:nonzero;display:inline;overflow:visible;visibility:visible;isolation:auto;mix-blend-mode:normal;color-interpolation:sRGB;color-interpolation-filters:linearRGB;solid-solid-opacity:1;vector-effect:none;fill:currentColor;fill-opacity:1;fill-rule:nonzero;stroke-width:0.274607;stroke-linecap:butt;stroke-linejoin:miter;stroke-miterlimit:4;stroke-dasharray:none;stroke-dashoffset:0;stroke-opacity:1;color-rendering:auto;image-rendering:auto;shape-rendering:auto;text-rendering:auto;enable-background:accumulate;stop-stop-opacity:1;stroke:none;opacity:1"
           d="M 779.10403,230.95468 V 51.54469 h 41.5206 v 179.40999 z"
           id="path944" />
        <path
           style="font-style:normal;font-variant:normal;font-weight:normal;font-stretch:normal;font-size:256.3px;line-height:1.25;font-family:Montserrat;-inkscape-font-specification:Montserrat;font-variant-ligatures:normal;font-variant-position:normal;font-variant-caps:normal;font-variant-numeric:normal;font-variant-alternates:normal;font-variant-east-asian:normal;font-feature-settings:normal;font-variation-settings:normal;text-indent:0;text-align:start;text-decoration:none;text-decoration-line:none;text-decoration-style:solid;text-decoration-letter-spacing:normal;word-spacing:normal;text-transform:none;writing-mode:lr-tb;direction:ltr;text-orientation:mixed;dominant-baseline:auto;baseline-shift:baseline;text-anchor:start;white-space:normal;shape-padding:0;shape-margin:0;inline-size:0;clip-rule:nonzero;display:inline;overflow:visible;visibility:visible;isolation:auto;mix-blend-mode:normal;color-interpolation:sRGB;color-interpolation-filters:linearRGB;solid-solid-opacity:1;vector-effect:none;fill:currentColor;fill-opacity:1;fill-rule:nonzero;stroke-width:0.274607;stroke-linecap:butt;stroke-linejoin:miter;stroke-miterlimit:4;stroke-dasharray:none;stroke-dashoffset:0;stroke-opacity:1;color-rendering:auto;image-rendering:auto;shape-rendering:auto;text-rendering:auto;enable-background:accumulate;stop-stop-opacity:1;stroke:none;opacity:1"
           d="m 888.03129,138.43039 h 94.831 v 16.4032 h -94.831 z m 2.0504,92.52429 h -18.9662 V 51.54469 h 123.024 v 16.403199 h -104.0578 z"
           id="path946" />
        <path
           style="font-style:normal;font-variant:normal;font-weight:normal;font-stretch:normal;font-size:256.3px;line-height:1.25;font-family:Montserrat;-inkscape-font-specification:Montserrat;font-variant-ligatures:normal;font-variant-position:normal;font-variant-caps:normal;font-variant-numeric:normal;font-variant-alternates:normal;font-variant-east-asian:normal;font-feature-settings:normal;font-variation-settings:normal;text-indent:0;text-align:start;text-decoration:none;text-decoration-line:none;text-decoration-style:solid;text-decoration-letter-spacing:normal;word-spacing:normal;text-transform:none;writing-mode:lr-tb;direction:ltr;text-orientation:mixed;dominant-baseline:auto;baseline-shift:baseline;text-anchor:start;white-space:normal;shape-padding:0;shape-margin:0;inline-size:0;clip-rule:nonzero;display:inline;overflow:visible;visibility:visible;isolation:auto;mix-blend-mode:normal;color-interpolation:sRGB;color-interpolation-filters:linearRGB;solid-solid-opacity:1;vector-effect:none;fill:currentColor;fill-opacity:1;fill-rule:nonzero;stroke-width:0.274607;stroke-linecap:butt;stroke-linejoin:miter;stroke-miterlimit:4;stroke-dasharray:none;stroke-dashoffset:0;stroke-opacity:1;color-rendering:auto;image-rendering:auto;shape-rendering:auto;text-rendering:auto;enable-background:accumulate;stop-stop-opacity:1;stroke:none;opacity:1"
           d="M 1029.5088,230.95468 V 96.397188 h 18.1973 V 230.95468 Z m 9.2268,-164.288291 c -3.7591,0 -6.9201,-1.2815 -9.4831,-3.8445 -2.563,-2.562999 -3.8445,-5.638599 -3.8445,-9.226799 0,-3.5882 1.2815,-6.578367 3.8445,-8.9705 2.563,-2.563 5.724,-3.8445 9.4831,-3.8445 3.7591,0 6.9201,1.196067 9.4831,3.5882 2.563,2.392133 3.8445,5.3823 3.8445,8.9705 0,3.759067 -1.2815,6.9201 -3.8445,9.483099 -2.3921,2.563 -5.5532,3.8445 -9.4831,3.8445 z"
           id="path948" />
        <path
           style="font-style:normal;font-variant:normal;font-weight:normal;font-stretch:normal;font-size:256.3px;line-height:1.25;font-family:Montserrat;-inkscape-font-specification:Montserrat;font-variant-ligatures:normal;font-variant-position:normal;font-variant-caps:normal;font-variant-numeric:normal;font-variant-alternates:normal;font-variant-east-asian:normal;font-feature-settings:normal;font-variation-settings:normal;text-indent:0;text-align:start;text-decoration:none;text-decoration-line:none;text-decoration-style:solid;text-decoration-letter-spacing:normal;word-spacing:normal;text-transform:none;writing-mode:lr-tb;direction:ltr;text-orientation:mixed;dominant-baseline:auto;baseline-shift:baseline;text-anchor:start;white-space:normal;shape-padding:0;shape-margin:0;inline-size:0;clip-rule:nonzero;display:inline;overflow:visible;visibility:visible;isolation:auto;mix-blend-mode:normal;color-interpolation:sRGB;color-interpolation-filters:linearRGB;solid-solid-opacity:1;vector-effect:none;fill:currentColor;fill-opacity:1;fill-rule:nonzero;stroke-width:0.274607;stroke-linecap:butt;stroke-linejoin:miter;stroke-miterlimit:4;stroke-dasharray:none;stroke-dashoffset:0;stroke-opacity:1;color-rendering:auto;image-rendering:auto;shape-rendering:auto;text-rendering:auto;enable-background:accumulate;stop-stop-opacity:1;stroke:none;opacity:1"
           d="m 1140.999,232.23618 c -12.6441,0 -22.3835,-3.41733 -29.2182,-10.252 -6.8347,-6.83467 -10.252,-16.48863 -10.252,-28.9619 V 66.666389 h 18.1973 V 191.99708 c 0,7.85987 1.965,13.92563 5.8949,18.1973 4.1008,4.27167 9.9103,6.4075 17.4284,6.4075 8.0307,0 14.6945,-2.3067 19.9914,-6.9201 l 6.4075,13.0713 c -3.5882,3.24647 -7.9453,5.6386 -13.0713,7.1764 -4.9551,1.5378 -10.0811,2.3067 -15.378,2.3067 z M 1077.4366,111.51889 V 96.397188 h 83.2975 v 15.121702 z"
           id="path950" />
      </g>
      <path
         id="path3895"
         style="display:inline;fill:currentColor;fill-opacity:1;fill-rule:nonzero;stroke:none;stroke-width:0.0651359"
         d="m 117.03924,39.77348 c -6.37812,0.013 -13.16155,2.20462 -20.235984,6.01049 -8.20649,4.43487 -16.84846,11.10835 -25.55193,19.62309 h -5.3e-4 c -1.76063,1.72156 -3.5225,3.51925 -5.28443,5.38882 -0.78489,0.8323 -1.56911,1.67733 -2.35334,2.53836 -4.6872,5.14961 -9.35411,10.80471 -13.92732,16.90076 2.823,-0.20992 6.23422,-0.33951 9.66298,-0.17312 3.94277,-4.99541 7.92983,-9.63448 11.90573,-13.86736 1.76519,-1.87976 3.52835,-3.68015 5.28443,-5.39708 1.14964,-1.12437 2.29673,-2.21623 3.43855,-3.2675 7.12198,-6.56196 14.06522,-11.67971 20.410134,-15.09935 2.07547,-1.12313 4.05235,-1.99011 5.97689,-2.74092 l 1.20563,-1.98953 h 5.49888 c 1.39807,-0.24654 2.72928,-0.37878 3.97031,-0.37518 1.2535,0.003 2.40518,0.14221 3.49746,0.37518 h 13.58418 c -1.64671,-2.03605 -3.59966,-3.76037 -5.87509,-5.06998 -3.37601,-1.95434 -7.21763,-2.86202 -11.20655,-2.85668 z" />
      <path
         id="path3918"
         style="display:inline;fill:currentColor;fill-opacity:1;fill-rule:nonzero;stroke:none;stroke-width:0.0651359"
         d="m 145.64369,106.05007 v 8.04188 c 0.71996,0.26231 1.48492,0.50808 2.18436,0.77772 9.67334,3.71602 17.36787,8.13011 22.43481,12.75479 2.53705,2.30775 4.41317,4.65294 5.6286,6.94375 1.21674,2.29735 1.79443,4.51636 1.79834,6.77789 -0.004,2.26152 -0.5816,4.48027 -1.79834,6.77891 -1.22261,2.31754 -3.14599,4.69109 -5.72472,7.0249 -2.86339,-2.73047 -6.73701,-4.41057 -11.00605,-4.41057 -5.70501,0 -10.69647,3.00415 -13.517,7.50702 v 16.88682 c 0.26172,0.41844 0.52691,0.83502 0.82527,1.22629 2.91483,3.82153 7.51409,6.28954 12.69173,6.28954 8.81162,0 15.9551,-7.14298 15.9551,-15.95459 0,-1.78601 -0.29857,-3.49953 -0.83922,-5.10254 0.36282,-0.31131 0.72032,-0.62357 1.06815,-0.93948 3.03989,-2.76823 5.49431,-5.75075 7.21455,-8.98342 1.71959,-3.2262 2.68435,-6.72608 2.68045,-10.32288 0.004,-3.5968 -0.96086,-7.09631 -2.68045,-10.32185 -3.0241,-5.65769 -8.23252,-10.54973 -15.03009,-14.86627 -6.06544,-3.83628 -13.44611,-7.22302 -21.88549,-10.10791 z" />
      <path
         id="path1635"
         style="display:inline;fill:currentColor;fill-opacity:1;fill-rule:nonzero;stroke:none;stroke-width:0.0651359"
         d="m 74.208776,102.75157 4.54545,-7.50084 c -2.48143,-0.0647 -4.97883,-0.10633 -7.50238,-0.10646 -5.47858,0.003 -10.86321,0.1565 -16.13338,0.44958 -5.3e-4,0 -0.004,0.003 -0.004,0.003 l -9.84849,0.72451 -0.007,-0.007 c -7.9e-4,0.003 -10e-4,0.004 -0.004,0.005 -9.70525,0.88977 -18.92968,2.26885 -27.50478,4.07159 0.27176,2.22986 0.86515,4.693 1.8371,7.32772 6.33879,-1.32226 13.0729,-2.41102 20.11867,-3.23237 3.17865,-0.37062 6.42093,-0.68659 9.71878,-0.94517 7.04835,-0.55364 14.34817,-0.84605 21.8271,-0.84542 0.99838,0 1.96505,0.0467 2.95692,0.0569 z" />
      <path
         id="path4010"
         style="display:inline;fill:currentColor;fill-opacity:1;fill-rule:nonzero;stroke:none;stroke-width:0.0651359"
         d="m 96.077716,133.34555 -10.59987,17.49041 h 10.06089 c 2.14057,-5.49653 2.41929,-11.67453 0.53898,-17.49041 z" />
      <path
         id="path1631"
         style="display:inline;fill:currentColor;fill-opacity:1;fill-rule:nonzero;stroke:none;stroke-width:0.0651359"
         d="m 46.282826,148.83246 20.05098,-33.08636 c -2.78527,0.53478 -5.53242,1.50815 -8.12716,3.00604 -10.68548,6.17029 -15.32841,18.75425 -11.92382,30.08032 z" />
      <path
         id="path1629"
         style="display:inline;fill:currentColor;fill-opacity:1;fill-rule:nonzero;stroke:none;stroke-width:0.0651359"
         d="m 18.138296,195.27355 c -1.25984,-1.69362 -2.87403,-3.16614 -4.81831,-4.28863 -0.80328,-0.46376 -1.62998,-0.84426 -2.47169,-1.15496 -2.4558098,-0.9067 -5.0362198,-1.17263 -7.5287398,-0.85214 -4.76735,0.61357 -9.2047,3.36243 -11.79411,7.84706 -4.4058802,7.6313 -1.7916302,17.38808 5.83944,21.79453 1.5462,0.89238 3.18008999,1.49235 4.83898,1.82522 0.0523,0.27969 0.1309,0.53692 0.18759,0.81286 z" />
      <path
         id="path3991"
         style="display:inline;fill:currentColor;fill-opacity:1;fill-rule:nonzero;stroke:none;stroke-width:0.0651359"
         d="m 85.475786,189.60776 c -4.69007,6.13736 -9.45374,11.80455 -14.20482,16.8651 l -0.008,0.0185 -5.28702,5.3971 -0.0139,0.004 c -1.149,1.12292 -2.2962,2.21507 -3.43803,3.267 -7.12132,6.56116 -14.06523,11.67836 -20.41013,15.09932 -2.29576,1.24217 -4.4727,2.17522 -6.58151,2.96209 l -0.86713,1.43092 h -3.83284 c -1.91909,0.45479 -3.73029,0.71649 -5.37021,0.7116 -1.7512,-0.003 -3.31543,-0.25945 -4.7625,-0.7116 H 8.1164762 c 1.70061,2.1839 3.7390098,4.02844 6.1381298,5.41001 3.37717,1.95408 7.21853,2.86089 11.20759,2.85565 1.44838,-0.003 2.92026,-0.13245 4.40903,-0.35348 h 5.3e-4 c 5.06771,-0.75245 10.35902,-2.7159 15.82642,-5.65753 8.20582,-4.43445 16.84728,-11.10748 25.55141,-19.62206 h 0.002 c 1.20502,1.17896 2.40862,2.32569 3.60908,3.43236 7.48218,6.88811 14.86713,12.37179 21.94026,16.19073 7.074424,3.80587 13.857714,5.99681 20.236494,6.01049 3.98958,0.005 7.83041,-0.90168 11.20707,-2.85512 2.39999,-1.38131 4.43893,-3.22586 6.13968,-5.41002 h -12.57753 c -1.44908,0.45371 -3.0158,0.71112 -4.76922,0.71469 -1.72902,0.005 -3.62149,-0.23341 -5.64771,-0.71469 h -6.14588 v -2.06034 c -1.57249,-0.66175 -3.18998,-1.42761 -4.85759,-2.33007 -7.366244,-3.96677 -15.523894,-10.22644 -23.850224,-18.36582 0.78554,-0.83243 1.57066,-1.67881 2.3549,-2.53989 5.39949,-5.93299 10.7647,-12.57163 15.99954,-19.74813 z" />
      <path
         id="path3780"
         style="display:inline;fill:currentColor;fill-opacity:1;fill-rule:nonzero;stroke:none;stroke-width:0.0651359"
         d="m 59.825156,193.16723 -4.17546,6.89002 c 2.28696,2.8091 4.58496,5.53791 6.89364,8.11267 1.79581,-1.34961 3.63201,-3.09533 5.42912,-5.25393 l 0.001,-0.003 c -2.72647,-3.05049 -5.44341,-6.34418 -8.14834,-9.74617 z" />
      <path
         id="path1621"
         style="display:inline;fill:currentColor;fill-opacity:1;fill-rule:nonzero;stroke:none;stroke-width:0.0651359"
         d="m 48.819106,36.5897 c -2.57192,0.0668 -5.1641,0.75845 -7.54889,2.13527 -1.54567,0.89283 -2.88253,2.00821 -4.00027,3.27784 -4.06187,-1.43425 -8.00647,-2.22015 -11.80652,-2.22777 -3.9884,-0.005 -7.82944,0.90081 -11.20707,2.85616 -4.6409298,2.67163 -7.9585998,7.05011 -10.0174698,12.34135 -2.07192,5.30937 -2.99778,11.59277 -3.0024,18.65675 0.004,8.81036 1.46405,18.86752 4.25193,29.74909 -4.79188001,1.34178 -9.31618,2.8271 -13.5263,4.44571 -10.2711702,3.96161 -18.7164902,8.68876 -24.8046902,14.2162 -3.03846,2.76828 -5.49277,5.75111 -7.21351,8.98446 -1.72001,3.22556 -2.68456,6.72504 -2.68201,10.32187 v 0.0222 c 0,3.58836 0.96507,7.08102 2.68201,10.30068 3.02347,5.65769 8.23302,10.54918 15.02905,14.86575 8.05375,5.09365 18.4192602,9.39898 30.5139002,12.78218 2.37186,0.66373 4.8100998,1.29214 7.3111798,1.88359 0.91803,0.21754 1.84306,0.43069 2.77761,0.63717 3.09813,0.68559 6.29957,1.30469 9.56893,1.87484 l 4.23178,-6.98304 c -5.0429,-0.81145 -9.94041,-1.72599 -14.54536,-2.80604 -2.51334,-0.58883 -4.9516398,-1.21806 -7.3178998,-1.8805 -4.57814,-1.28122 -8.87484,-2.69195 -12.8385,-4.21939 -9.6732002,-3.71602 -17.3676802,-8.13091 -22.4342902,-12.75427 -2.53802,-2.30841 -4.41391,-4.6541 -5.63014,-6.94428 -1.2162,-2.29864 -1.79373,-4.51686 -1.79679,-6.77838 0.004,-2.2615 0.58059,-4.48038 1.79679,-6.77839 2.11484,-4.00913 6.31392,-8.18568 12.40441,-12.03132 7.18737,-4.56343 16.9315802,-8.64917 28.4990302,-11.88971 0.46997,1.56784 0.95971,3.14611 1.48053,4.7413 2.7318698,8.35631 6.1685998,17.07227 10.2655298,25.95812 1.3595,2.9474 2.79263,5.91264 4.29741,8.89195 2.38333,4.71517 4.94026,9.45939 7.68118,14.20845 v 0 c 0.90915,1.57408 1.84118,3.1034 2.76831,4.64208 l 4.43539,-7.31996 c -0.21771,-0.37317 -0.44639,-0.72345 -0.66301,-1.09865 -3.73944,-6.47777 -7.1332,-12.94588 -10.17767,-19.32596 -1.42518,-2.98712 -2.77432,-5.95355 -4.04317,-8.89246 -2.86729,-6.64324 -5.3387,-13.14644 -7.38663,-19.41124 -0.47101,-1.43886 -0.91223,-2.86081 -1.33842,-4.27363 8e-4,0 0.004,0 0.006,-0.003 l -2.02933,-7.26986 0.001,-0.007 c -0.004,0.003 -0.008,0.003 -0.0114,0.004 -2.66298,-10.40587 -4.0170198,-19.88849 -4.0111498,-27.86303 -0.004,-6.39328 0.8699,-11.80036 2.4825398,-15.90548 1.62591,-4.12131 3.87426,-6.87927 6.76134,-8.55453 2.12533,-1.22232 4.54737,-1.8387 7.43159,-1.84484 2.4589,-0.007 5.24852,0.47996 8.28322,1.45831 -0.93341,3.84506 -0.45039,8.03976 1.68413,11.73676 4.40646,7.63082 14.16321,10.24606 21.79454,5.83993 0.80506,-0.46437 1.55024,-0.992 2.24069,-1.56681 2.01075,-1.67367 3.52933,-3.77423 4.49791,-6.0911 1.85183,-4.43564 1.68986,-9.65274 -0.89865,-14.13661 -3.02899,-5.24658 -8.58793,-8.12218 -14.24616,-7.97523 z" />
      <path
         id="path669"
         style="display:inline;fill:currentColor;fill-opacity:1;stroke-width:0.528971"
         d="M 108.94619,51.54427 0.25152619,230.90311 H 33.251586 l 27.26707,-44.99416 h 48.427534 v 45.04532 h 33.00005 v -179.41 z m 0,54.45432 v 48.53812 H 79.530926 Z" />
    </g>
  </g>
</svg>
